<svg xmlns="http://www.w3.org/2000/svg" version="1.1" xmlns:xlink="http://www.w3.org/1999/xlink" xmlns:svgjs="http://svgjs.dev/svgjs" width="2000" height="1247" viewBox="0 0 2000 1247"><g transform="matrix(1,0,0,1,-1.2121212121212466,0.504858299595071)"><svg viewBox="0 0 396 247" data-background-color="#ffffff" preserveAspectRatio="xMidYMid meet" height="1247" width="2000" xmlns="http://www.w3.org/2000/svg" xmlns:xlink="http://www.w3.org/1999/xlink"><g id="tight-bounds" transform="matrix(1,0,0,1,0.2400000000000091,-0.09999999999999432)"><svg viewBox="0 0 395.52 247.2" height="247.2" width="395.52"><g><svg></svg></g><g><svg viewBox="0 0 395.52 247.2" height="247.2" width="395.52"><g transform="matrix(1,0,0,1,75.54432,82.34424621769865)"><svg viewBox="0 0 244.43135999999998 82.51150756460268" height="82.51150756460268" width="244.43135999999998"><g><svg viewBox="0 0 408.2143269238115 137.79892859882327" height="82.51150756460268" width="244.43135999999998"><g transform="matrix(1,0,0,1,163.7829669238115,26.71892808142602)"><svg viewBox="0 0 244.43135999999998 84.36107243597122" height="84.36107243597122" width="244.43135999999998"><g id="textblocktransform"><svg viewBox="0 0 244.43135999999998 84.36107243597122" height="84.36107243597122" width="244.43135999999998" id="textblock"><g><svg viewBox="0 0 244.43135999999998 55.033206096740514" height="55.033206096740514" width="244.43135999999998"><g transform="matrix(1,0,0,1,0,0)"><svg width="244.43135999999998" viewBox="2.2 -36.74 210.45000000000002 47.38" height="55.033206096740514" data-palette-color="#f2ce6e"><path d="M13.96 0.61L13.96 0.61Q10.33 0.61 7.35-0.74 4.37-2.1 2.2-4.42L2.2-4.42 4.47-7.1Q6.27-5.13 8.79-4.03 11.3-2.93 14.01-2.93L14.01-2.93Q17.46-2.93 19.38-4.49 21.31-6.05 21.31-8.59L21.31-8.59Q21.31-10.4 20.56-11.49 19.8-12.57 18.51-13.29 17.21-14.01 15.6-14.72L15.6-14.72 10.72-16.89Q9.16-17.58 7.57-18.65 5.98-19.73 4.92-21.41 3.86-23.1 3.86-25.56L3.86-25.56Q3.86-28.15 5.22-30.15 6.59-32.15 8.97-33.31 11.35-34.47 14.36-34.47L14.36-34.47Q17.46-34.47 20-33.3 22.53-32.13 24.27-30.4L24.27-30.4 22.05-27.71Q20.51-29.17 18.55-30.04 16.6-30.91 14.36-30.91L14.36-30.91Q11.47-30.91 9.7-29.52 7.93-28.13 7.93-25.81L7.93-25.81Q7.93-24.15 8.79-23.07 9.64-22 10.94-21.3 12.23-20.61 13.55-20.04L13.55-20.04 18.38-17.97Q20.36-17.14 21.95-15.99 23.54-14.84 24.46-13.15 25.39-11.45 25.39-8.91L25.39-8.91Q25.39-6.25 24-4.09 22.61-1.93 20.06-0.66 17.5 0.61 13.96 0.61ZM38.99 0.61L38.99 0.61Q35.06 0.61 33.21-1.86 31.37-4.32 31.37-9.11L31.37-9.11 31.37-24.98 35.28-24.98 35.28-9.62Q35.28-6.08 36.44-4.46 37.6-2.83 40.18-2.83L40.18-2.83Q42.14-2.83 43.69-3.85 45.24-4.86 47.09-7.15L47.09-7.15 47.09-24.98 51-24.98 51 0 47.75 0 47.41-3.96 47.24-3.96Q45.51-1.9 43.53-0.65 41.55 0.61 38.99 0.61ZM63.57 10.64L59.61 10.64 59.61-24.98 62.91-24.98 63.28-22.09 63.37-22.09Q65.08-23.49 67.17-24.55 69.26-25.61 71.41-25.61L71.41-25.61Q76.29-25.61 78.83-22.14 81.37-18.68 81.37-12.87L81.37-12.87Q81.37-8.62 79.85-5.6 78.34-2.59 75.86-0.99 73.38 0.61 70.48 0.61L70.48 0.61Q68.77 0.61 67.01-0.15 65.25-0.9 63.47-2.29L63.47-2.29 63.57 2.1 63.57 10.64ZM69.87-2.71L69.87-2.71Q73.07-2.71 75.18-5.43 77.29-8.15 77.29-12.82L77.29-12.82Q77.29-17.04 75.7-19.68 74.12-22.31 70.48-22.31L70.48-22.31Q68.84-22.31 67.16-21.4 65.47-20.48 63.57-18.75L63.57-18.75 63.57-5.4Q65.35-3.93 66.97-3.32 68.6-2.71 69.87-2.71ZM98.14 0.61L98.14 0.61Q94.84 0.61 92.14-0.95 89.45-2.51 87.85-5.44 86.25-8.37 86.25-12.45L86.25-12.45Q86.25-16.53 87.85-19.48 89.45-22.44 92.01-24.02 94.57-25.61 97.43-25.61L97.43-25.61Q102.14-25.61 104.73-22.46 107.32-19.31 107.32-13.89L107.32-13.89Q107.32-12.52 107.17-11.57L107.17-11.57 90.15-11.57Q90.35-7.5 92.64-5 94.94-2.51 98.6-2.51L98.6-2.51Q100.48-2.51 102.04-3.02 103.61-3.52 104.95-4.42L104.95-4.42 106.34-1.95Q104.7-0.83 102.73-0.11 100.75 0.61 98.14 0.61ZM90.1-14.43L90.1-14.43 103.83-14.43Q103.83-18.36 102.17-20.41 100.51-22.46 97.48-22.46L97.48-22.46Q94.77-22.46 92.63-20.36 90.5-18.26 90.1-14.43ZM117.49 0L113.54 0 113.54-24.98 116.84-24.98 117.2-20.46 117.3-20.46Q118.62-22.8 120.45-24.21 122.28-25.61 124.4-25.61L124.4-25.61Q126.02-25.61 127.04-25.1L127.04-25.1 126.16-21.73Q125.62-21.9 125.15-21.97 124.67-22.05 123.89-22.05L123.89-22.05Q122.3-22.05 120.55-20.74 118.79-19.43 117.49-16.16L117.49-16.16 117.49 0ZM140.17 0L131.63 0 131.63-33.84 139.98-33.84Q147.79-33.84 151.84-29.44 155.9-25.05 155.9-17.04L155.9-17.04Q155.9-9.01 151.87-4.5 147.84 0 140.17 0L140.17 0ZM135.63-30.54L135.63-3.3 139.66-3.3Q145.72-3.3 148.72-6.95 151.72-10.6 151.72-17.04L151.72-17.04Q151.72-23.46 148.72-27 145.72-30.54 139.66-30.54L139.66-30.54 135.63-30.54ZM166.81 0L162.85 0 162.85-24.98 166.15-24.98 166.51-20.46 166.61-20.46Q167.93-22.8 169.76-24.21 171.59-25.61 173.72-25.61L173.72-25.61Q175.33-25.61 176.35-25.1L176.35-25.1 175.47-21.73Q174.94-21.9 174.46-21.97 173.98-22.05 173.2-22.05L173.2-22.05Q171.62-22.05 169.86-20.74 168.1-19.43 166.81-16.16L166.81-16.16 166.81 0ZM184.48 0L180.52 0 180.52-24.98 184.48-24.98 184.48 0ZM182.58-30.25L182.58-30.25Q181.38-30.25 180.65-30.99 179.91-31.74 179.91-32.98L179.91-32.98Q179.91-34.13 180.65-34.86 181.38-35.6 182.58-35.6L182.58-35.6Q183.77-35.6 184.5-34.86 185.24-34.13 185.24-32.98L185.24-32.98Q185.24-31.74 184.5-30.99 183.77-30.25 182.58-30.25ZM197.37 0.61L197.37 0.61Q195.12 0.61 194.11-0.77 193.1-2.15 193.1-4.79L193.1-4.79 193.1-36.74 197.05-36.74 197.05-4.47Q197.05-3.47 197.42-3.06 197.78-2.66 198.3-2.66L198.3-2.66Q198.49-2.66 198.67-2.67 198.86-2.69 199.17-2.76L199.17-2.76 199.69 0.2Q199.27 0.37 198.69 0.49 198.1 0.61 197.37 0.61ZM210.33 0.61L210.33 0.61Q208.08 0.61 207.07-0.77 206.06-2.15 206.06-4.79L206.06-4.79 206.06-36.74 210.01-36.74 210.01-4.47Q210.01-3.47 210.38-3.06 210.74-2.66 211.26-2.66L211.26-2.66Q211.45-2.66 211.64-2.67 211.82-2.69 212.14-2.76L212.14-2.76 212.65 0.2Q212.23 0.37 211.65 0.49 211.06 0.61 210.33 0.61Z" opacity="1" transform="matrix(1,0,0,1,0,0)" fill="#f2ce6e" class="wordmark-text-0" data-fill-palette-color="primary" id="text-0"></path></svg></g></svg></g><g transform="matrix(1,0,0,1,0,68.02522525923463)"><svg viewBox="0 0 143.50565145599998 16.3358471767366" height="16.3358471767366" width="143.50565145599998"><g transform="matrix(1,0,0,1,0,0)"><svg width="143.50565145599998" viewBox="1.25 -38.7 436.55 49.7" height="16.3358471767366" data-palette-color="#35185a"><path d="M16.1-4.9L16.1-4.9Q12.2 0 9.35 0L9.35 0Q5.8 0 3.53-2.9 1.25-5.8 1.25-10.35L1.25-10.35Q1.25-16.6 4.73-20.9 8.2-25.2 13.25-25.2L13.25-25.2 16.05-24.8 16.05-25.75 15.45-37.45 22.3-38.7 21.65-13 21.65-8.6Q21.65-5.6 23.15-1.7L23.15-1.7 17.75 0.55Q16.3-2.45 16.1-4.9ZM6.85-12.95Q6.85-9.75 8.03-7.95 9.2-6.15 11.43-6.15 13.65-6.15 16.05-7.95L16.05-7.95 16.05-18.75Q13.05-19.35 11.6-19.35L11.6-19.35Q9.35-19.35 8.1-17.75 6.85-16.15 6.85-12.95ZM27.45-24.15L27.45-24.15 33.5-25.45Q33.95-21.6 34.1-18.15L34.1-18.15Q38.65-25.2 42.65-25.2L42.65-25.2 42.1-17.4Q39.2-17.4 37.52-16.88 35.85-16.35 34.1-14.8L34.1-14.8 34.1-13 34.65-1.25 27.95 0 28.55-12.15Q28.35-18.85 27.45-24.15ZM45.8-24.2L52.5-25.45 51.9-13 52.45-1.25 45.75 0 46.35-12.15 45.8-24.2ZM45.45-32.77Q45.45-34.45 46.75-35.77 48.05-37.1 49.75-37.1 51.45-37.1 52.35-36.18 53.25-35.25 53.25-33.4 53.25-31.55 51.97-30.23 50.7-28.9 49.02-28.9 47.35-28.9 46.4-30 45.45-31.1 45.45-32.77ZM57.99-37.45L64.84-38.7 64.19-13 64.74-1.25 57.99 0 58.59-12.15 57.99-37.45ZM70.64-37.45L77.49-38.7 76.84-13 77.39-1.25 70.64 0 71.24-12.15 70.64-37.45ZM98.14 11L91.69 9.65 96.84-1.9 93.14-12 88.09-24.15 94.74-25.4 97.94-14.75 99.59-9.7 100.24-9.7 101.44-13.35 105.04-25.45 111.19-24.7 102.34-1.45 98.14 11ZM112.73-10.45Q112.73-16.85 116.18-21.3 119.63-25.75 124.26-25.75 128.88-25.75 131.46-22.75 134.03-19.75 134.03-14.8L134.03-14.8Q134.03-8.2 130.71-3.83 127.38 0.55 122.33 0.55L122.33 0.55Q118.18 0.55 115.46-2.58 112.73-5.7 112.73-10.45L112.73-10.45ZM128.43-12.2L128.43-12.2Q128.43-19.45 123.48-19.45L123.48-19.45Q118.33-19.45 118.33-12.65L118.33-12.65Q118.33-9.1 119.78-7.1 121.23-5.1 123.61-5.1 125.98-5.1 127.21-6.93 128.43-8.75 128.43-12.2ZM144.33 0L144.33 0Q141.63 0 139.96-1.78 138.28-3.55 138.28-6.45L138.28-6.45 138.58-12.2 138.03-24.2 144.73-25.45 144.08-10.25Q144.08-8.1 144.86-7.1 145.63-6.1 147.33-6.1 149.03-6.1 152.03-7.8L152.03-7.8 152.03-10.8 151.48-23.95 158.23-25.2 157.63-12.7 157.68-8.6Q157.68-5.4 159.33-2.15L159.33-2.15 154.13 0.15Q152.48-3.1 152.13-5.05L152.13-5.05Q147.63 0 144.33 0ZM163.28-24.15L163.28-24.15 169.33-25.45Q169.78-21.6 169.93-18.15L169.93-18.15Q174.48-25.2 178.48-25.2L178.48-25.2 177.93-17.4Q175.03-17.4 173.35-16.88 171.68-16.35 169.93-14.8L169.93-14.8 169.93-13 170.48-1.25 163.78 0 164.38-12.15Q164.18-18.85 163.28-24.15ZM209.87-14.4L211.62-6.25 212.27-6.25 213.87-13.1 216.47-25.45 222.57-24.7 218.92-12.3 215.87-0.6 207.67 0.15 204.92-12 204.67-12.8 201.32-0.6 193.37 0.15 190.47-12 187.02-24.15 193.57-25.4 195.62-14.4 197.42-6.25 198.07-6.25 202.37-20.5 201.32-24.15 207.77-25.4 209.87-14.4ZM230.87 0Q227.92 0 226.05-1.88 224.17-3.75 224.17-6.93 224.17-10.1 227.07-12.43 229.97-14.75 234.12-14.75L234.12-14.75 237.52-14.75 237.52-15.6Q237.52-18.05 236.52-18.95 235.52-19.85 232.77-19.85L232.77-19.85Q231.62-19.85 230.05-19.38 228.47-18.9 226.52-17.9L226.52-17.9 225.07-21.85Q227.22-23.35 230.3-24.55 233.37-25.75 235.37-25.75L235.37-25.75Q243.22-25.75 243.22-18.15L243.22-18.15 243.22-8.35Q243.22-5.55 244.97-2.1L244.97-2.1 239.67 0.15Q238.42-2.25 237.82-4.15L237.82-4.15Q235.07 0 230.87 0L230.87 0ZM232.97-5.1L232.97-5.1Q234.97-5.1 237.52-7.15L237.52-7.15 237.52-10.5Q234.87-11.1 233.22-11.1L233.22-11.1Q230.07-11.1 230.07-8.3L230.07-8.3Q230.07-6.85 230.87-5.98 231.67-5.1 232.97-5.1ZM256.47 11L250.02 9.65 255.17-1.9 251.47-12 246.42-24.15 253.07-25.4 256.27-14.75 257.92-9.7 258.57-9.7 259.77-13.35 263.37-25.45 269.52-24.7 260.67-1.45 256.47 11ZM279.31-24.2L282.21-24.2 282.21-29.65 288.96-30.95 288.31-24.2 294.36-24.2 293.81-20.1 288.11-20.1 287.86-9.65Q287.86-7.3 288.31-6.53 288.76-5.75 289.96-5.75 291.16-5.75 293.16-6.3L293.16-6.3 293.46-2.75Q290.16 0 287.66 0 285.16 0 283.56-1.83 281.96-3.65 281.96-6.6L281.96-6.6 282.26-12.2 282.21-20.1 278.76-20.1 279.31-24.2ZM312.61-12.65Q312.61-16.1 312.01-17.25 311.41-18.4 309.21-18.4 307.01-18.4 304.21-16.65L304.21-16.65 304.21-13 304.76-1.25 298.01 0 298.61-12.15 298.01-37.45 304.86-38.7 304.21-25.75 304.21-19.9Q304.96-20.9 305.91-21.85 306.86-22.8 308.86-24 310.86-25.2 313.14-25.2 315.41-25.2 316.96-23.43 318.51-21.65 318.51-18.6L318.51-18.6 318.21-13 318.76-1 312.01 0.25 312.61-12.65ZM323.71-24.15L323.71-24.15 329.76-25.45Q330.21-21.6 330.36-18.15L330.36-18.15Q334.91-25.2 338.91-25.2L338.91-25.2 338.36-17.4Q335.46-17.4 333.78-16.88 332.11-16.35 330.36-14.8L330.36-14.8 330.36-13 330.91-1.25 324.21 0 324.81-12.15Q324.61-18.85 323.71-24.15ZM340.56-10.45Q340.56-16.85 344.01-21.3 347.46-25.75 352.08-25.75 356.71-25.75 359.28-22.75 361.86-19.75 361.86-14.8L361.86-14.8Q361.86-8.2 358.53-3.83 355.21 0.55 350.16 0.55L350.16 0.55Q346.01 0.55 343.28-2.58 340.56-5.7 340.56-10.45L340.56-10.45ZM356.26-12.2L356.26-12.2Q356.26-19.45 351.31-19.45L351.31-19.45Q346.16-19.45 346.16-12.65L346.16-12.65Q346.16-9.1 347.61-7.1 349.06-5.1 351.43-5.1 353.81-5.1 355.03-6.93 356.26-8.75 356.26-12.2ZM372.15 0L372.15 0Q369.45 0 367.78-1.78 366.1-3.55 366.1-6.45L366.1-6.45 366.4-12.2 365.85-24.2 372.55-25.45 371.9-10.25Q371.9-8.1 372.68-7.1 373.45-6.1 375.15-6.1 376.85-6.1 379.85-7.8L379.85-7.8 379.85-10.8 379.3-23.95 386.05-25.2 385.45-12.7 385.5-8.6Q385.5-5.4 387.15-2.15L387.15-2.15 381.95 0.15Q380.3-3.1 379.95-5.05L379.95-5.05Q375.45 0 372.15 0ZM389.9 4.95L389.9 4.95Q389.9 0.55 398.1-1.95L398.1-1.95Q396.15-2.95 396.15-4.55L396.15-4.55Q396.15-5.2 396.65-5.85 397.15-6.5 398.1-7.2L398.1-7.2 398.1-7.6Q394.5-7.6 392.38-9.6 390.25-11.6 390.25-14.95L390.25-14.95Q390.25-19.3 393.8-22.53 397.35-25.75 402.2-25.75L402.2-25.75Q403.45-25.75 405.85-25.25 408.25-24.75 410.55-24.75L410.55-24.75 414.4-24.75 413.9-20.4 410.15-20.85Q410.65-19.4 410.65-17.55 410.65-15.7 409.78-13.88 408.9-12.05 407.68-10.95 406.45-9.85 405.23-9.03 404-8.2 403.13-7.58 402.25-6.95 402.25-6.45L402.25-6.45Q402.25-5.5 404.25-4.8L404.25-4.8Q409.55-2.65 411.43-1.15 413.3 0.35 413.3 2.55L413.3 2.55Q413.3 6.25 409.58 8.63 405.85 11 400.7 11 395.55 11 392.73 9.35 389.9 7.7 389.9 4.95ZM405-16.05L405-16.05Q405-18.5 403.9-19.65 402.8-20.8 400.45-20.8L400.45-20.8Q395.9-20.8 395.9-16.32 395.9-11.85 400.75-11.85L400.75-11.85Q405-11.85 405-16.05ZM406.8 3.3L406.8 3.3Q406.8 2.4 405.85 1.63 404.9 0.85 402.45-0.2L402.45-0.2Q398.8 0.8 397.43 1.65 396.05 2.5 396.05 3.75 396.05 5 397.43 5.78 398.8 6.55 401.25 6.55 403.7 6.55 405.25 5.65 406.8 4.75 406.8 3.3ZM431.65-12.65Q431.65-16.1 431.05-17.25 430.45-18.4 428.25-18.4 426.05-18.4 423.25-16.65L423.25-16.65 423.25-13 423.8-1.25 417.05 0 417.65-12.15 417.05-37.45 423.9-38.7 423.25-25.75 423.25-19.9Q424-20.9 424.95-21.85 425.9-22.8 427.9-24 429.9-25.2 432.17-25.2 434.45-25.2 436-23.43 437.55-21.65 437.55-18.6L437.55-18.6 437.25-13 437.8-1 431.05 0.25 431.65-12.65Z" opacity="1" transform="matrix(1,0,0,1,0,0)" fill="#35185a" class="slogan-text-1" data-fill-palette-color="secondary" id="text-1"></path></svg></g></svg></g></svg></g></svg></g><g><svg viewBox="0 0 137.79892859882327 137.79892859882327" height="137.79892859882327" width="137.79892859882327"><g><svg></svg></g><g id="icon-0"><svg viewBox="0 0 137.79892859882327 137.79892859882327" height="137.79892859882327" width="137.79892859882327"><g><path d="M0 68.899c0-38.052 30.847-68.899 68.899-68.899 38.052 0 68.899 30.847 68.9 68.899 0 38.052-30.847 68.899-68.9 68.9-38.052 0-68.899-30.847-68.899-68.9zM68.899 132.836c35.311 0 63.937-28.625 63.937-63.937 0-35.311-28.625-63.937-63.937-63.936-35.311 0-63.937 28.625-63.936 63.936 0 35.311 28.625 63.937 63.936 63.937z" data-fill-palette-color="accent" fill="#ffdc00" stroke="transparent"></path></g><g transform="matrix(1,0,0,1,31.498006694442104,37.584756059202775)"><svg viewBox="0 0 74.80291520993906 62.62941648041771" height="62.62941648041771" width="74.80291520993906"><g><svg xmlns="http://www.w3.org/2000/svg" xmlns:xlink="http://www.w3.org/1999/xlink" version="1.1" x="0" y="0" viewBox="0.43399970506361174 9.726 99.13300029493638 83" enable-background="new 0 0 100 100" xml:space="preserve" height="62.62941648041771" width="74.80291520993906" class="icon-dxe-0" data-fill-palette-color="accent" id="dxe-0"><path d="M97.719 20.143H78.387V22.758H97.719C98.299 22.758 99.567 22.029 99.567 21.451 99.566 20.873 98.299 20.143 97.719 20.143" fill="#ffdc00" data-fill-palette-color="accent"></path><path d="M76.539 17.282H74.201V25.618H76.539A0.245 0.245 0 0 0 76.785 25.372V17.529A0.246 0.246 0 0 0 76.539 17.282" fill="#ffdc00" data-fill-palette-color="accent"></path><path d="M36.433 73.517C36.433 71.973 35.135 70.72 33.537 70.72H6.116C4.519 70.72 3.22 71.973 3.22 73.517L3.216 73.607 1.373 89.971C1.395 91.494 2.685 92.726 4.267 92.726H35.386C36.968 92.726 38.258 91.495 38.282 89.971z" fill="#ffdc00" data-fill-palette-color="accent"></path><path d="M34.154 34.776V41.652S40.268 39.476 40.268 38.974V35.68C40.268 35.353 40.259 35.056 40.246 34.776z" fill="#ffdc00" data-fill-palette-color="accent"></path><path d="M69.217 12.79H63.475C63.709 13.503 63.838 14.192 63.838 14.762V30.086L63.836 30.111H69.217A3.39 3.39 0 0 0 72.6 26.727V16.173A3.387 3.387 0 0 0 69.217 12.79" fill="#ffdc00" data-fill-palette-color="accent"></path><path d="M58.686 9.726H8.438C2.057 9.726 0.435 16.18 0.434 21.452 0.433 28.588 2.975 33.176 6.858 33.176H58.686C60.645 33.176 62.239 31.79 62.239 30.087V14.762C62.238 12.912 60.48 9.726 58.686 9.726" fill="#ffdc00" data-fill-palette-color="accent"></path><path d="M32.537 34.776H7.863C10.329 41.403 9.096 57.888 7.857 69.119H31.408C30.43 67.797 28.606 65.601 29.256 59.103 29.735 54.305 30.751 48.828 30.639 43.478L32.538 42.676z" fill="#ffdc00" data-fill-palette-color="accent"></path></svg></g></svg></g></svg></g></svg></g></svg></g></svg></g><g><path d="M0 123.6c0-68.262 55.338-123.6 123.6-123.6 52.33 0 97.065 32.521 115.096 78.455l-1.598 0c-17.953-45.095-62.003-76.969-113.498-76.969-67.442 0-122.114 54.672-122.114 122.114 0 67.442 54.672 122.114 122.114 122.114 51.495 0 95.545-31.874 113.498-76.969l1.598 0c-18.031 45.934-62.766 78.455-115.096 78.455-68.262 0-123.6-55.338-123.6-123.6z" fill="#ffffff" stroke="transparent" data-fill-palette-color="tertiary"></path></g></svg></g><defs></defs></svg><rect width="395.52" height="247.2" fill="none" stroke="none" visibility="hidden"></rect></g></svg></g></svg>